<svg xmlns="http://www.w3.org/2000/svg" xmlns:xlink="http://www.w3.org/1999/xlink" width="800" zoomAndPan="magnify" viewBox="0 0 600 599.999999" height="800" preserveAspectRatio="xMidYMid meet" version="1.0"><defs><clipPath id="259b16b2b5"><path d="M 86.0625 20.800781 L 488 20.800781 L 488 550 L 86.0625 550 Z M 86.0625 20.800781 " clip-rule="nonzero"/></clipPath><clipPath id="d1515bf9f0"><path d="M 112.523438 20.800781 L 514.277344 20.800781 L 514.277344 549.496094 L 112.523438 549.496094 Z M 112.523438 20.800781 " clip-rule="nonzero"/></clipPath><clipPath id="66399b270f"><path d="M 310.136719 259.410156 L 450.695312 259.410156 L 450.695312 579.535156 L 310.136719 579.535156 Z M 310.136719 259.410156 " clip-rule="nonzero"/></clipPath><clipPath id="dbfbc4b3b0"><path d="M 310.136719 563 L 351 563 L 351 579.535156 L 310.136719 579.535156 Z M 310.136719 563 " clip-rule="nonzero"/></clipPath><clipPath id="999e415766"><path d="M 383.894531 563 L 424.949219 563 L 424.949219 579.535156 L 383.894531 579.535156 Z M 383.894531 563 " clip-rule="nonzero"/></clipPath></defs><rect x="-60" width="720" fill="#ffffff" y="-60" height="719.999999" fill-opacity="1"/><rect x="-60" width="720" fill="#ffffff" y="-60" height="719.999999" fill-opacity="1"/><rect x="-60" width="720" fill="#ffffff" y="-60" height="719.999999" fill-opacity="1"/><g clip-path="url(#259b16b2b5)"><path fill="#75203f" d="M 467.605469 549.019531 L 138.980469 549.019531 C 127.808594 549.019531 118.753906 539.96875 118.753906 528.796875 L 86.082031 41.015625 C 86.082031 29.847656 95.136719 20.796875 106.308594 20.796875 L 434.933594 20.796875 C 446.105469 20.796875 455.160156 29.847656 455.160156 41.015625 L 487.832031 528.796875 C 487.832031 539.96875 478.777344 549.019531 467.605469 549.019531 " fill-opacity="1" fill-rule="nonzero"/></g><g clip-path="url(#d1515bf9f0)"><path fill="#ad263d" d="M 494.054688 549.019531 L 165.425781 549.019531 C 154.257812 549.019531 145.203125 539.96875 145.203125 528.796875 L 112.53125 41.015625 C 112.53125 29.847656 121.585938 20.796875 132.757812 20.796875 L 461.386719 20.796875 C 472.554688 20.796875 481.609375 29.847656 481.609375 41.015625 L 514.285156 528.796875 C 514.285156 539.96875 505.226562 549.019531 494.054688 549.019531 " fill-opacity="1" fill-rule="nonzero"/></g><path fill="#1e1240" d="M 212.746094 248.390625 L 167.449219 248.390625 C 165.910156 248.390625 164.660156 247.144531 164.660156 245.605469 L 161.207031 192.847656 C 161.207031 191.304688 163.605469 187.886719 165.148438 187.886719 L 209.292969 190.058594 C 210.832031 190.058594 212.082031 191.304688 212.082031 192.847656 L 217.921875 244.398438 C 217.921875 245.9375 214.285156 248.390625 212.746094 248.390625 " fill-opacity="1" fill-rule="nonzero"/><path fill="#311e69" d="M 215.648438 245.601562 L 170.347656 245.601562 C 168.808594 245.601562 167.5625 244.355469 167.5625 242.816406 L 164.105469 190.054688 C 164.105469 188.515625 165.355469 187.265625 166.890625 187.265625 L 212.1875 187.265625 C 213.730469 187.265625 214.976562 188.515625 214.976562 190.054688 L 218.433594 242.816406 C 218.433594 244.355469 217.183594 245.601562 215.648438 245.601562 " fill-opacity="1" fill-rule="nonzero"/><path fill="#1e1240" d="M 291.675781 248.703125 L 246.378906 248.703125 C 244.839844 248.703125 243.589844 247.453125 243.589844 245.917969 L 240.136719 193.15625 C 240.136719 191.613281 242.535156 188.199219 244.074219 188.199219 L 288.222656 190.367188 C 289.761719 190.367188 291.007812 191.613281 291.007812 193.15625 L 296.851562 244.707031 C 296.851562 246.246094 293.214844 248.703125 291.675781 248.703125 " fill-opacity="1" fill-rule="nonzero"/><path fill="#311e69" d="M 294.574219 245.914062 L 249.277344 245.914062 C 247.734375 245.914062 246.488281 244.664062 246.488281 243.125 L 243.035156 190.363281 C 243.035156 188.824219 244.285156 187.578125 245.824219 187.578125 L 291.121094 187.578125 C 292.660156 187.578125 293.90625 188.824219 293.90625 190.363281 L 297.363281 243.125 C 297.363281 244.664062 296.113281 245.914062 294.574219 245.914062 " fill-opacity="1" fill-rule="nonzero"/><path fill="#1e1240" d="M 370.605469 249.015625 L 325.308594 249.015625 C 323.769531 249.015625 322.519531 247.765625 322.519531 246.226562 L 319.0625 193.464844 C 319.0625 191.925781 321.464844 188.511719 323.003906 188.511719 L 367.148438 190.675781 C 368.691406 190.675781 369.9375 191.925781 369.9375 193.464844 L 375.777344 245.015625 C 375.777344 246.558594 372.144531 249.015625 370.605469 249.015625 " fill-opacity="1" fill-rule="nonzero"/><path fill="#311e69" d="M 373.503906 246.222656 L 328.207031 246.222656 C 326.667969 246.222656 325.417969 244.976562 325.417969 243.4375 L 321.964844 190.675781 C 321.964844 189.136719 323.210938 187.886719 324.753906 187.886719 L 370.050781 187.886719 C 371.585938 187.886719 372.839844 189.136719 372.839844 190.675781 L 376.292969 243.4375 C 376.292969 244.976562 375.042969 246.222656 373.503906 246.222656 " fill-opacity="1" fill-rule="nonzero"/><path fill="#1e1240" d="M 455.792969 334.035156 L 410.496094 334.035156 C 408.957031 334.035156 407.707031 332.789062 407.707031 331.25 L 397.992188 193.777344 C 397.992188 192.238281 400.394531 188.820312 401.933594 188.820312 L 446.078125 190.988281 C 447.617188 190.988281 448.867188 192.238281 448.867188 193.777344 L 460.96875 330.039062 C 460.96875 331.578125 457.332031 334.035156 455.792969 334.035156 " fill-opacity="1" fill-rule="nonzero"/><path fill="#311e69" d="M 458.695312 331.246094 L 413.394531 331.246094 C 411.855469 331.246094 410.609375 330 410.609375 328.457031 L 400.894531 190.988281 C 400.894531 189.445312 402.140625 188.199219 403.679688 188.199219 L 448.980469 188.199219 C 450.519531 188.199219 451.765625 189.445312 451.765625 190.988281 L 461.480469 328.457031 C 461.480469 330 460.234375 331.246094 458.695312 331.246094 " fill-opacity="1" fill-rule="nonzero"/><path fill="#1e1240" d="M 217.941406 330.9375 L 172.640625 330.9375 C 171.101562 330.9375 169.851562 329.6875 169.851562 328.152344 L 166.398438 275.386719 C 166.398438 273.847656 168.796875 270.433594 170.339844 270.433594 L 214.484375 272.601562 C 216.023438 272.601562 217.273438 273.847656 217.273438 275.386719 L 223.117188 326.9375 C 223.117188 328.480469 219.480469 330.9375 217.941406 330.9375 " fill-opacity="1" fill-rule="nonzero"/><path fill="#311e69" d="M 220.839844 328.144531 L 175.542969 328.144531 C 174 328.144531 172.753906 326.898438 172.753906 325.359375 L 169.296875 272.597656 C 169.296875 271.058594 170.546875 269.808594 172.085938 269.808594 L 217.382812 269.808594 C 218.921875 269.808594 220.171875 271.058594 220.171875 272.597656 L 223.625 325.359375 C 223.625 326.898438 222.378906 328.144531 220.839844 328.144531 " fill-opacity="1" fill-rule="nonzero"/><path fill="#1e1240" d="M 296.867188 331.25 L 251.570312 331.25 C 250.03125 331.25 248.78125 330 248.78125 328.460938 L 245.328125 275.695312 C 245.328125 274.160156 247.726562 270.742188 249.265625 270.742188 L 293.414062 272.910156 C 294.953125 272.910156 296.203125 274.160156 296.203125 275.695312 L 302.042969 327.25 C 302.042969 328.789062 298.410156 331.25 296.867188 331.25 " fill-opacity="1" fill-rule="nonzero"/><path fill="#311e69" d="M 299.769531 328.457031 L 254.46875 328.457031 C 252.929688 328.457031 251.683594 327.207031 251.683594 325.667969 L 248.226562 272.910156 C 248.226562 271.371094 249.476562 270.121094 251.015625 270.121094 L 296.3125 270.121094 C 297.851562 270.121094 299.101562 271.371094 299.101562 272.910156 L 302.558594 325.667969 C 302.558594 327.207031 301.308594 328.457031 299.769531 328.457031 " fill-opacity="1" fill-rule="nonzero"/><path fill="#1e1240" d="M 375.796875 331.558594 L 330.5 331.558594 C 328.960938 331.558594 327.710938 330.3125 327.710938 328.769531 L 324.253906 276.007812 C 324.253906 274.472656 326.65625 271.054688 328.195312 271.054688 L 372.34375 273.222656 C 373.882812 273.222656 375.128906 274.472656 375.128906 276.007812 L 380.972656 327.5625 C 380.972656 329.101562 377.335938 331.558594 375.796875 331.558594 " fill-opacity="1" fill-rule="nonzero"/><path fill="#311e69" d="M 378.695312 328.769531 L 333.398438 328.769531 C 331.859375 328.769531 330.613281 327.519531 330.613281 325.980469 L 327.160156 273.21875 C 327.160156 271.679688 328.40625 270.433594 329.945312 270.433594 L 375.242188 270.433594 C 376.78125 270.433594 378.03125 271.679688 378.03125 273.21875 L 381.484375 325.980469 C 381.484375 327.519531 380.238281 328.769531 378.695312 328.769531 " fill-opacity="1" fill-rule="nonzero"/><path fill="#1e1240" d="M 223.132812 413.480469 L 177.835938 413.480469 C 176.292969 413.480469 175.046875 412.234375 175.046875 410.691406 L 171.59375 357.929688 C 171.59375 356.394531 173.992188 352.976562 175.53125 352.976562 L 219.675781 355.144531 C 221.214844 355.144531 222.464844 356.394531 222.464844 357.929688 L 228.308594 409.484375 C 228.308594 411.023438 224.671875 413.480469 223.132812 413.480469 " fill-opacity="1" fill-rule="nonzero"/><path fill="#311e69" d="M 226.03125 410.6875 L 180.734375 410.6875 C 179.195312 410.6875 177.945312 409.441406 177.945312 407.902344 L 174.488281 355.140625 C 174.488281 353.601562 175.738281 352.355469 177.277344 352.355469 L 222.574219 352.355469 C 224.117188 352.355469 225.363281 353.601562 225.363281 355.140625 L 228.820312 407.902344 C 228.820312 409.441406 227.570312 410.6875 226.03125 410.6875 " fill-opacity="1" fill-rule="nonzero"/><path fill="#75203f" d="M 287.519531 495.53125 L 184.835938 495.53125 C 183.296875 495.53125 182.046875 494.28125 182.046875 492.742188 L 178.589844 439.984375 C 178.589844 438.445312 180.992188 435.027344 182.53125 435.027344 L 284.0625 437.195312 C 285.605469 437.195312 286.851562 438.445312 286.851562 439.984375 L 292.691406 491.535156 C 292.691406 493.074219 289.058594 495.53125 287.519531 495.53125 " fill-opacity="1" fill-rule="nonzero"/><path fill="#ff6161" d="M 290.417969 492.738281 L 187.734375 492.738281 C 186.195312 492.738281 184.949219 491.492188 184.949219 489.953125 L 181.492188 437.191406 C 181.492188 435.652344 182.738281 434.402344 184.28125 434.402344 L 286.964844 434.402344 C 288.5 434.402344 289.753906 435.652344 289.753906 437.191406 L 293.203125 489.953125 C 293.203125 491.492188 291.957031 492.738281 290.417969 492.738281 " fill-opacity="1" fill-rule="nonzero"/><path fill="#1e1240" d="M 302.058594 413.789062 L 256.761719 413.789062 C 255.222656 413.789062 253.976562 412.542969 253.976562 411 L 250.519531 358.242188 C 250.519531 356.703125 252.921875 353.285156 254.460938 353.285156 L 298.605469 355.457031 C 300.144531 355.457031 301.394531 356.703125 301.394531 358.242188 L 307.238281 409.796875 C 307.238281 411.332031 303.601562 413.789062 302.058594 413.789062 " fill-opacity="1" fill-rule="nonzero"/><path fill="#311e69" d="M 304.960938 411 L 259.664062 411 C 258.125 411 256.875 409.75 256.875 408.214844 L 253.417969 355.453125 C 253.417969 353.910156 254.667969 352.664062 256.207031 352.664062 L 301.503906 352.664062 C 303.046875 352.664062 304.292969 353.910156 304.292969 355.453125 L 307.75 408.214844 C 307.75 409.75 306.5 411 304.960938 411 " fill-opacity="1" fill-rule="nonzero"/><path fill="#1e1240" d="M 380.988281 414.101562 L 335.691406 414.101562 C 334.152344 414.101562 332.902344 412.851562 332.902344 411.3125 L 329.449219 358.554688 C 329.449219 357.011719 331.851562 353.597656 333.390625 353.597656 L 377.535156 355.769531 C 379.074219 355.769531 380.324219 357.011719 380.324219 358.554688 L 386.164062 410.105469 C 386.164062 411.644531 382.53125 414.101562 380.988281 414.101562 " fill-opacity="1" fill-rule="nonzero"/><path fill="#311e69" d="M 383.890625 411.3125 L 338.59375 411.3125 C 337.050781 411.3125 335.804688 410.0625 335.804688 408.523438 L 332.351562 355.765625 C 332.351562 354.222656 333.597656 352.976562 335.136719 352.976562 L 380.433594 352.976562 C 381.972656 352.976562 383.222656 354.222656 383.222656 355.765625 L 386.679688 408.523438 C 386.679688 410.0625 385.429688 411.3125 383.890625 411.3125 " fill-opacity="1" fill-rule="nonzero"/><path fill="#1e1240" d="M 385.046875 494.136719 L 307.078125 494.136719 C 305.539062 494.136719 304.292969 492.886719 304.292969 491.347656 L 300.835938 438.585938 C 300.835938 437.046875 303.238281 433.632812 304.773438 433.632812 L 381.597656 435.800781 C 383.132812 435.800781 384.382812 437.046875 384.382812 438.585938 L 390.222656 490.136719 C 390.222656 491.679688 386.589844 494.136719 385.046875 494.136719 " fill-opacity="1" fill-rule="nonzero"/><path fill="#311e69" d="M 387.949219 491.34375 L 309.976562 491.34375 C 308.4375 491.34375 307.1875 490.097656 307.1875 488.558594 L 303.738281 435.796875 C 303.738281 434.257812 304.984375 433.011719 306.523438 433.011719 L 384.492188 433.011719 C 386.035156 433.011719 387.28125 434.257812 387.28125 435.796875 L 390.738281 488.558594 C 390.738281 490.097656 389.488281 491.34375 387.949219 491.34375 " fill-opacity="1" fill-rule="nonzero"/><path fill="#311e69" d="M 441.667969 131.621094 L 164.621094 131.621094 C 160.605469 131.621094 157.351562 128.363281 157.351562 124.351562 L 154.320312 78.230469 C 154.320312 74.214844 157.578125 70.960938 161.59375 70.960938 L 438.640625 70.960938 C 442.65625 70.960938 445.910156 74.214844 445.910156 78.230469 L 448.9375 124.351562 C 448.9375 128.363281 445.683594 131.621094 441.667969 131.621094 " fill-opacity="1" fill-rule="nonzero"/><path fill="#614cd4" d="M 445.910156 78.230469 C 445.910156 74.214844 442.65625 70.960938 438.640625 70.960938 L 437.65625 70.960938 C 437.6875 71.242188 437.742188 71.523438 437.742188 71.8125 L 440.769531 117.933594 C 440.769531 121.953125 437.515625 125.203125 433.496094 125.203125 L 157.4375 125.203125 C 157.863281 128.808594 160.898438 131.621094 164.621094 131.621094 L 441.667969 131.621094 C 445.683594 131.621094 448.9375 128.367188 448.9375 124.351562 L 445.910156 78.230469 " fill-opacity="1" fill-rule="nonzero"/><path fill="#1e1240" d="M 166.097656 88.144531 C 166.097656 84.132812 169.355469 80.875 173.371094 80.875 L 446.085938 80.875 L 445.910156 78.230469 C 445.910156 74.214844 442.65625 70.960938 438.640625 70.960938 L 161.59375 70.960938 C 157.578125 70.960938 154.320312 74.214844 154.320312 78.230469 L 157.351562 124.351562 C 157.351562 128.367188 160.605469 131.621094 164.621094 131.621094 L 168.953125 131.621094 L 166.097656 88.144531 " fill-opacity="1" fill-rule="nonzero"/><path fill="#311e69" d="M 446.234375 162.34375 L 343.226562 162.34375 C 341.730469 162.34375 340.519531 161.132812 340.519531 159.640625 L 339.394531 142.488281 C 339.394531 141 340.605469 139.789062 342.097656 139.789062 L 445.109375 139.789062 C 446.601562 139.789062 447.8125 141 447.8125 142.488281 L 448.9375 159.640625 C 448.9375 161.132812 447.726562 162.34375 446.234375 162.34375 " fill-opacity="1" fill-rule="nonzero"/><path fill="#614cd4" d="M 447.8125 142.488281 C 447.8125 141 446.601562 139.789062 445.109375 139.789062 L 444.742188 139.789062 C 444.753906 139.894531 444.773438 140 444.773438 140.105469 L 445.898438 157.253906 C 445.898438 158.75 444.691406 159.957031 443.195312 159.957031 L 340.554688 159.957031 C 340.710938 161.300781 341.839844 162.34375 343.226562 162.34375 L 446.234375 162.34375 C 447.726562 162.34375 448.9375 161.132812 448.9375 159.640625 L 447.8125 142.488281 " fill-opacity="1" fill-rule="nonzero"/><path fill="#1e1240" d="M 343.773438 146.175781 C 343.773438 144.6875 344.984375 143.476562 346.476562 143.476562 L 447.875 143.476562 L 447.8125 142.488281 C 447.8125 141 446.601562 139.789062 445.109375 139.789062 L 342.097656 139.789062 C 340.605469 139.789062 339.394531 141 339.394531 142.488281 L 340.519531 159.640625 C 340.519531 161.132812 341.730469 162.34375 343.226562 162.34375 L 344.832031 162.34375 L 343.773438 146.175781 " fill-opacity="1" fill-rule="nonzero"/><path fill="#1e1240" d="M 454.132812 381.941406 C 455.886719 398.125 448.996094 412.148438 438.746094 413.257812 C 428.492188 414.367188 418.761719 402.144531 417.007812 385.960938 C 415.257812 369.773438 422.148438 355.753906 432.398438 354.644531 C 442.648438 353.535156 452.378906 365.753906 454.132812 381.941406 " fill-opacity="1" fill-rule="nonzero"/><path fill="#311e69" d="M 458.109375 379.722656 C 459.863281 395.90625 452.976562 409.929688 442.722656 411.039062 C 432.472656 412.148438 422.738281 399.925781 420.984375 383.742188 C 419.234375 367.554688 426.125 353.535156 436.375 352.421875 C 446.625 351.3125 456.355469 363.535156 458.109375 379.722656 " fill-opacity="1" fill-rule="nonzero"/><path fill="#ffffff" d="M 268.957031 202.328125 C 267.378906 202.328125 266.125 202.820312 265.210938 203.804688 C 264.292969 204.792969 263.878906 206.054688 263.960938 207.605469 C 264.035156 209.035156 264.59375 210.222656 265.632812 211.171875 C 266.679688 212.125 267.980469 212.597656 269.546875 212.597656 C 270.335938 212.597656 271.050781 212.472656 271.683594 212.222656 C 272.320312 211.96875 272.855469 211.621094 273.292969 211.171875 C 273.734375 210.730469 274.0625 210.199219 274.285156 209.585938 C 274.503906 208.972656 274.597656 208.292969 274.554688 207.550781 C 274.503906 206.5625 274.230469 205.667969 273.746094 204.878906 C 273.257812 204.089844 272.601562 203.464844 271.769531 203.011719 C 270.9375 202.558594 270 202.328125 268.957031 202.328125 Z M 276.394531 223.878906 C 276.328125 222.5625 275.996094 221.421875 275.410156 220.445312 C 274.820312 219.472656 274.023438 218.722656 273.019531 218.199219 C 272.015625 217.679688 270.910156 217.417969 269.699219 217.417969 C 267.980469 217.417969 266.574219 217.988281 265.472656 219.132812 C 264.367188 220.277344 263.875 221.875 263.980469 223.925781 C 264.050781 225.238281 264.382812 226.394531 264.984375 227.398438 C 265.582031 228.398438 266.367188 229.171875 267.339844 229.71875 C 268.308594 230.265625 269.378906 230.539062 270.535156 230.539062 C 271.710938 230.539062 272.757812 230.261719 273.675781 229.703125 C 274.585938 229.152344 275.285156 228.367188 275.769531 227.359375 C 276.253906 226.347656 276.464844 225.191406 276.394531 223.878906 Z M 257.425781 207.175781 C 257.335938 205.492188 257.710938 203.910156 258.550781 202.417969 C 259.390625 200.929688 260.675781 199.738281 262.402344 198.847656 C 264.132812 197.957031 266.179688 197.511719 268.554688 197.511719 C 270.558594 197.511719 272.328125 197.773438 273.867188 198.292969 C 275.410156 198.816406 276.710938 199.535156 277.769531 200.453125 C 278.824219 201.367188 279.628906 202.402344 280.175781 203.554688 C 280.726562 204.703125 281.03125 205.929688 281.101562 207.222656 C 281.1875 208.875 280.839844 210.347656 280.058594 211.640625 C 279.273438 212.9375 278.0625 213.996094 276.425781 214.820312 C 277.886719 215.375 279.109375 216.101562 280.097656 217 C 281.089844 217.902344 281.851562 218.945312 282.394531 220.132812 C 282.933594 221.316406 283.246094 222.632812 283.320312 224.078125 C 283.433594 226.199219 283.019531 228.121094 282.085938 229.84375 C 281.148438 231.570312 279.710938 232.917969 277.777344 233.894531 C 275.84375 234.867188 273.535156 235.355469 270.835938 235.355469 C 268.046875 235.355469 265.632812 234.867188 263.597656 233.894531 C 261.558594 232.917969 259.992188 231.578125 258.894531 229.871094 C 257.796875 228.160156 257.1875 226.25 257.078125 224.128906 C 256.839844 219.605469 258.8125 216.5 263 214.820312 C 259.46875 213.203125 257.609375 210.65625 257.425781 207.175781 " fill-opacity="1" fill-rule="nonzero"/><g clip-path="url(#66399b270f)"><path fill="#ff6161" d="M 310.699219 573.960938 C 315.351562 567.492188 327.132812 562.59375 327.132812 562.59375 C 327.132812 562.59375 313.921875 466.976562 323.878906 380.636719 C 329.109375 335.308594 350.640625 278.828125 354.554688 270.464844 C 368.277344 272.714844 425.507812 260.519531 432.699219 259.9375 C 437.253906 267.5625 446.140625 278.667969 449.4375 300.632812 C 454.636719 335.265625 435.046875 388.859375 433.753906 416.644531 C 433.398438 424.332031 422.871094 560.179688 422.871094 560.179688 C 422.585938 561.988281 422.640625 563.820312 423.023438 565.609375 C 423.824219 569.363281 425.019531 575.914062 423.753906 576.621094 C 415.597656 581.199219 379.714844 580.429688 384.367188 573.960938 C 389.023438 567.492188 400.804688 562.59375 400.804688 562.59375 C 400.804688 562.59375 377.269531 402.4375 392.113281 356.871094 C 381.082031 372.382812 371.328125 406.484375 370.285156 419.734375 C 367.765625 451.769531 349.203125 560.179688 349.203125 560.179688 C 348.914062 561.988281 348.964844 563.820312 349.347656 565.609375 C 350.152344 569.363281 351.347656 575.914062 350.085938 576.621094 C 341.925781 581.199219 306.042969 580.429688 310.699219 573.960938 " fill-opacity="1" fill-rule="nonzero"/></g><path fill="#ad263d" d="M 392.113281 356.871094 C 390.945312 360.457031 390.011719 364.761719 389.289062 369.636719 C 390.648438 363.15625 391.6875 358.515625 392.113281 356.871094 " fill-opacity="1" fill-rule="nonzero"/><g clip-path="url(#dbfbc4b3b0)"><path fill="#311e69" d="M 310.699219 573.960938 C 312.457031 571.511719 315.246094 569.289062 318.023438 567.46875 C 320.394531 569.332031 341.132812 563.738281 344.75 563.324219 C 346.835938 563.089844 348.335938 563.976562 349.25 564.777344 C 349.292969 565.054688 349.289062 565.332031 349.347656 565.609375 C 350.152344 569.363281 351.347656 575.914062 350.085938 576.621094 C 341.925781 581.199219 306.042969 580.433594 310.699219 573.960938 " fill-opacity="1" fill-rule="nonzero"/></g><g clip-path="url(#999e415766)"><path fill="#311e69" d="M 384.367188 573.960938 C 386.132812 571.511719 388.914062 569.289062 391.695312 567.46875 C 394.0625 569.332031 414.804688 563.738281 418.421875 563.324219 C 420.503906 563.089844 422.003906 563.976562 422.921875 564.777344 C 422.964844 565.054688 422.960938 565.332031 423.019531 565.609375 C 423.824219 569.363281 425.019531 575.914062 423.753906 576.621094 C 415.597656 581.199219 379.714844 580.433594 384.367188 573.960938 " fill-opacity="1" fill-rule="nonzero"/></g><path fill="#311e69" d="M 321.335938 410.402344 C 331.457031 412.265625 358.558594 416.824219 370.933594 414.726562 C 371.332031 412.316406 371.863281 409.613281 372.550781 406.664062 C 361.265625 400.363281 332.058594 393.289062 322.796875 391.144531 C 322.199219 397.550781 321.714844 403.984375 321.335938 410.402344 " fill-opacity="1" fill-rule="nonzero"/><path fill="#311e69" d="M 387.207031 405.359375 C 387.203125 411.492188 387.320312 417.882812 387.542969 424.429688 C 397.101562 423.882812 420.996094 422.144531 433.675781 418.003906 C 433.710938 417.40625 433.742188 416.921875 433.753906 416.644531 C 433.875 414.082031 434.191406 411.230469 434.589844 408.257812 C 422.5 405.511719 398.34375 405.296875 387.207031 405.359375 " fill-opacity="1" fill-rule="nonzero"/><path fill="#ff6161" d="M 393.6875 161.960938 C 393.6875 161.960938 391.816406 150.292969 390.574219 145.542969 C 389.488281 141.382812 388.039062 139.285156 385.96875 138.3125 C 381.539062 136.222656 378.710938 163.824219 380.746094 164.960938 C 382.785156 166.097656 393.6875 161.960938 393.6875 161.960938 " fill-opacity="1" fill-rule="nonzero"/><path fill="#ff6161" d="M 377.308594 126.425781 C 377.308594 126.425781 372.957031 135.144531 371.8125 140.066406 C 370.667969 144.984375 373 150.824219 377.707031 152.414062 C 381.007812 153.53125 389.644531 149.246094 389.046875 142.601562 C 388.453125 135.957031 377.308594 126.425781 377.308594 126.425781 " fill-opacity="1" fill-rule="nonzero"/><path fill="#ff9791" d="M 323.878906 380.636719 C 329.109375 335.308594 350.640625 278.828125 354.554688 270.464844 C 368.277344 272.714844 425.507812 260.519531 432.699219 259.9375 C 437.253906 267.5625 446.140625 278.667969 449.4375 300.632812 C 454.289062 332.949219 439.757812 384.089844 436.449219 413.050781 C 422.425781 417.207031 403.820312 418.289062 387.261719 412.957031 C 386.914062 389.554688 388.132812 369.089844 392.113281 356.871094 C 382.804688 369.957031 376.097656 396.488281 373.070312 412.355469 C 353.652344 412.21875 336.398438 407.164062 322.019531 400.152344 C 322.519531 393.625 323.132812 387.105469 323.878906 380.636719 " fill-opacity="1" fill-rule="nonzero"/><path fill="#311e69" d="M 390.625 267.160156 C 375.480469 269.59375 360.679688 271.46875 354.554688 270.464844 C 353.539062 272.632812 351.339844 278.046875 348.550781 285.644531 C 364.601562 288.820312 401.550781 292.835938 428.492188 270.433594 L 390.625 267.160156 " fill-opacity="1" fill-rule="nonzero"/><path fill="#ad263d" d="M 376.738281 150.246094 C 380.039062 151.359375 388.671875 147.074219 388.082031 140.429688 C 388.054688 140.132812 387.976562 139.84375 387.90625 139.550781 C 388.519531 140.511719 388.953125 141.523438 389.046875 142.601562 C 389.644531 149.246094 381.007812 153.53125 377.707031 152.414062 C 374.964844 151.488281 373.035156 149.113281 372.125 146.324219 C 373.179688 148.128906 374.742188 149.570312 376.738281 150.246094 " fill-opacity="1" fill-rule="nonzero"/><path fill="#ffe6e6" d="M 352.140625 276.207031 L 357.378906 256.0625 C 358.675781 245.890625 357.082031 235.527344 352.5625 226.324219 C 345.558594 212.042969 337.484375 185.929688 351.1875 173.578125 C 369.402344 157.164062 410.902344 151.675781 419.152344 183.320312 C 423.734375 200.90625 418.953125 218.578125 432.957031 260.710938 C 436.085938 270.132812 415.285156 280.089844 397.121094 281.058594 C 364.875 282.777344 352.140625 276.207031 352.140625 276.207031 " fill-opacity="1" fill-rule="nonzero"/><path fill="#1e1240" d="M 394.417969 119.589844 C 394.417969 119.589844 394.589844 109.820312 405.492188 111.375 C 416.390625 112.925781 415.875 134.640625 406.183594 135.160156 C 396.492188 135.679688 393.550781 130.230469 394.417969 119.589844 " fill-opacity="1" fill-rule="nonzero"/><path fill="#1e1240" d="M 380.878906 115.265625 C 385.457031 114.621094 389.621094 114.550781 398.421875 121.296875 C 405.007812 126.339844 403.390625 148.132812 392.0625 152.589844 C 387.0625 154.5625 380.457031 144.996094 379.164062 142.203125 C 378.675781 141.132812 376.410156 135.078125 375.695312 129.058594 C 375.695312 129.058594 370.632812 116.710938 380.878906 115.265625 " fill-opacity="1" fill-rule="nonzero"/><path fill="#ff6161" d="M 377.351562 142.125 C 377.351562 142.125 376.890625 139.640625 378.925781 138.441406 C 380.960938 137.238281 382.222656 139.863281 380.648438 143.542969 C 379.074219 147.230469 377.378906 146.097656 377.351562 142.125 " fill-opacity="1" fill-rule="nonzero"/><path fill="#ff6161" d="M 359.585938 171.578125 C 341.09375 167.898438 330.597656 238.445312 330.597656 238.445312 C 330.597656 238.445312 273.96875 210.082031 266.417969 220.867188 C 258.867188 231.652344 305.109375 284.417969 336.121094 281.242188 C 362.3125 278.5625 384.859375 176.605469 359.585938 171.578125 " fill-opacity="1" fill-rule="nonzero"/><path fill="#ad263d" d="M 336.121094 281.242188 C 358.964844 278.90625 379.015625 201.097656 367.023438 177.878906 C 365.441406 183.292969 364.925781 191.621094 362.261719 199.355469 C 357.050781 214.480469 355.535156 243.734375 350.324219 254.324219 C 345.109375 264.914062 342.925781 270.464844 327.160156 267.101562 C 311.386719 263.738281 317.871094 257.015625 299.375 251.296875 C 280.878906 245.582031 281.214844 232.472656 271.796875 226.097656 C 269.179688 224.328125 267.191406 223.46875 265.660156 223.125 C 264.117188 237.511719 306.878906 284.234375 336.121094 281.242188 " fill-opacity="1" fill-rule="nonzero"/><path fill="#311e69" d="M 368.398438 220.964844 C 367.449219 226.308594 366.21875 231.722656 364.746094 237 C 358.140625 235.472656 340.007812 230.3125 338.808594 219.421875 C 337.714844 209.5 357.964844 216.652344 368.398438 220.964844 " fill-opacity="1" fill-rule="nonzero"/><path fill="#ffe6e6" d="M 335.40625 214.144531 C 340.195312 194.125 348.433594 169.359375 359.585938 171.578125 C 372.742188 174.195312 372.9375 203.070312 366.410156 230.535156 C 358.816406 230.707031 342.914062 229.128906 335.40625 214.144531 " fill-opacity="1" fill-rule="nonzero"/><path fill="#ff6161" d="M 273.988281 221.386719 C 274.957031 219.570312 274.121094 219.191406 274.402344 215.042969 C 274.683594 210.890625 277.058594 204.566406 273.25 206.804688 C 270.109375 208.652344 271.386719 213.402344 269.351562 213.273438 C 267.320312 213.148438 259.636719 200.738281 258.558594 203 C 257.484375 205.265625 259.3125 205.660156 258.433594 208.660156 C 257.554688 211.664062 255.148438 213.378906 258.886719 218.367188 C 262.628906 223.359375 268.753906 231.242188 273.988281 221.386719 " fill-opacity="1" fill-rule="nonzero"/><path fill="#ffcccc" d="M 359.585938 171.578125 C 357.964844 171.257812 356.414062 171.5625 354.914062 172.28125 C 355.871094 181.296875 357.53125 199.144531 356.542969 205.570312 C 355.636719 211.472656 351.132812 221.1875 348.300781 226.890625 C 354.96875 230.140625 362.054688 230.636719 366.410156 230.535156 C 372.9375 203.070312 372.742188 174.195312 359.585938 171.578125 " fill-opacity="1" fill-rule="nonzero"/><path fill="#d95f76" d="M 387.261719 412.957031 C 403.820312 418.289062 422.425781 417.207031 436.449219 413.050781 C 439.757812 384.089844 454.289062 332.949219 449.4375 300.632812 C 446.140625 278.667969 437.253906 267.5625 432.699219 259.9375 C 430.820312 260.089844 425.515625 261.035156 418.480469 262.308594 C 419.546875 285.8125 436.3125 320.410156 427.503906 328.144531 C 416.402344 337.894531 393.875 325.433594 375.777344 328.769531 C 357.6875 332.097656 375.375 340.898438 372.125 353.597656 C 369.316406 364.550781 360.707031 401.371094 358.390625 411.289062 C 363.132812 411.9375 368.023438 412.320312 373.070312 412.355469 C 376.097656 396.488281 382.804688 369.957031 392.113281 356.871094 C 388.132812 369.089844 386.914062 389.554688 387.261719 412.957031 " fill-opacity="1" fill-rule="nonzero"/><path fill="#ffcccc" d="M 419.152344 183.320312 C 414.648438 166.042969 400.21875 159.882812 385.089844 160.484375 C 389.039062 169.183594 397.605469 190.199219 397.992188 209.777344 C 398.304688 225.53125 396.988281 258.351562 395.9375 281.105469 C 396.339844 281.085938 396.714844 281.082031 397.121094 281.058594 C 415.285156 280.089844 436.085938 270.132812 432.957031 260.710938 C 418.953125 218.578125 423.734375 200.90625 419.152344 183.320312 " fill-opacity="1" fill-rule="nonzero"/><path fill="#ffffff" d="M 199.257812 396.359375 L 198.058594 373.398438 C 193.957031 376.679688 191.164062 378.316406 189.6875 378.316406 C 188.976562 378.316406 188.335938 378.035156 187.757812 377.472656 C 187.183594 376.910156 186.875 376.257812 186.835938 375.519531 C 186.792969 374.660156 187.027344 374.027344 187.546875 373.625 C 188.0625 373.222656 188.988281 372.699219 190.316406 372.0625 C 192.296875 371.101562 193.878906 370.089844 195.039062 369.03125 C 196.207031 367.972656 197.222656 366.785156 198.097656 365.472656 C 198.972656 364.164062 199.542969 363.355469 199.8125 363.054688 C 200.082031 362.75 200.613281 362.597656 201.402344 362.597656 C 202.296875 362.597656 203.03125 362.945312 203.601562 363.636719 C 204.175781 364.324219 204.496094 365.273438 204.558594 366.484375 L 206.074219 395.375 C 206.25 398.753906 205.183594 400.445312 202.882812 400.445312 C 201.855469 400.445312 201.011719 400.101562 200.359375 399.414062 C 199.695312 398.71875 199.328125 397.703125 199.257812 396.359375 " fill-opacity="1" fill-rule="nonzero"/><path fill="#ffffff" d="M 276.738281 394.175781 L 289.910156 394.175781 C 291.222656 394.175781 292.238281 394.445312 292.957031 394.984375 C 293.675781 395.519531 294.054688 396.25 294.105469 397.175781 C 294.148438 398 293.910156 398.699219 293.398438 399.273438 C 292.878906 399.839844 292.066406 400.128906 290.957031 400.128906 L 272.382812 400.128906 C 271.117188 400.128906 270.117188 399.777344 269.371094 399.082031 C 268.628906 398.386719 268.234375 397.5625 268.183594 396.621094 C 268.152344 396.015625 268.335938 395.214844 268.738281 394.214844 C 269.140625 393.214844 269.59375 392.429688 270.101562 391.851562 C 272.21875 389.53125 274.132812 387.546875 275.847656 385.886719 C 277.5625 384.230469 278.789062 383.140625 279.539062 382.617188 C 280.867188 381.644531 281.960938 380.664062 282.828125 379.679688 C 283.695312 378.699219 284.339844 377.6875 284.765625 376.652344 C 285.191406 375.617188 285.378906 374.605469 285.328125 373.613281 C 285.269531 372.535156 284.964844 371.574219 284.402344 370.722656 C 283.847656 369.875 283.113281 369.214844 282.207031 368.742188 C 281.296875 368.269531 280.320312 368.035156 279.28125 368.035156 C 277.074219 368.035156 275.390625 369 274.230469 370.9375 C 274.078125 371.1875 273.828125 371.878906 273.496094 373.003906 C 273.160156 374.132812 272.757812 375 272.292969 375.605469 C 271.828125 376.210938 271.117188 376.511719 270.160156 376.511719 C 269.316406 376.511719 268.605469 376.234375 268.019531 375.679688 C 267.4375 375.125 267.121094 374.371094 267.070312 373.410156 C 267.007812 372.25 267.207031 371.039062 267.664062 369.777344 C 268.117188 368.515625 268.832031 367.375 269.816406 366.347656 C 270.792969 365.320312 272.0625 364.492188 273.621094 363.859375 C 275.179688 363.226562 277.027344 362.914062 279.164062 362.914062 C 281.738281 362.914062 283.953125 363.316406 285.8125 364.125 C 287.019531 364.664062 288.089844 365.402344 289.03125 366.347656 C 289.972656 367.285156 290.726562 368.375 291.289062 369.613281 C 291.847656 370.847656 292.164062 372.132812 292.234375 373.460938 C 292.34375 375.546875 291.925781 377.445312 290.976562 379.152344 C 290.03125 380.855469 289.046875 382.195312 288.019531 383.160156 C 286.996094 384.125 285.269531 385.644531 282.84375 387.714844 C 280.421875 389.785156 278.769531 391.390625 277.886719 392.535156 C 277.507812 392.988281 277.121094 393.535156 276.738281 394.175781 " fill-opacity="1" fill-rule="nonzero"/><path fill="#ffffff" d="M 186.675781 305.554688 L 197.527344 305.554688 L 196.757812 290.894531 Z M 198.070312 315.898438 L 197.824219 311.207031 L 185.15625 311.207031 C 183.554688 311.207031 182.339844 310.84375 181.503906 310.121094 C 180.664062 309.398438 180.214844 308.414062 180.148438 307.167969 C 180.132812 306.847656 180.171875 306.527344 180.273438 306.195312 C 180.375 305.867188 180.53125 305.523438 180.75 305.164062 C 180.964844 304.800781 181.191406 304.453125 181.429688 304.117188 C 181.664062 303.777344 181.949219 303.367188 182.296875 302.878906 L 194.734375 284.992188 C 195.546875 283.8125 196.21875 282.960938 196.757812 282.429688 C 197.292969 281.902344 197.957031 281.632812 198.75 281.632812 C 201.304688 281.632812 202.65625 283.097656 202.8125 286.027344 L 203.832031 305.554688 L 204.921875 305.554688 C 206.21875 305.554688 207.265625 305.730469 208.066406 306.085938 C 208.867188 306.4375 209.300781 307.210938 209.363281 308.40625 C 209.414062 309.378906 209.132812 310.089844 208.515625 310.535156 C 207.898438 310.980469 206.953125 311.207031 205.671875 311.207031 L 204.132812 311.207031 L 204.378906 315.898438 C 204.445312 317.195312 204.210938 318.15625 203.671875 318.785156 C 203.132812 319.421875 202.386719 319.734375 201.421875 319.734375 C 200.484375 319.734375 199.703125 319.410156 199.089844 318.761719 C 198.476562 318.117188 198.136719 317.160156 198.070312 315.898438 " fill-opacity="1" fill-rule="nonzero"/><path fill="#ffffff" d="M 282.503906 286.871094 L 270.511719 286.871094 L 269.503906 295.046875 C 271.828125 293.769531 274 293.128906 276.019531 293.128906 C 277.632812 293.128906 279.15625 293.429688 280.59375 294.035156 C 282.03125 294.644531 283.304688 295.480469 284.425781 296.546875 C 285.535156 297.617188 286.4375 298.882812 287.117188 300.34375 C 287.804688 301.808594 288.1875 303.382812 288.273438 305.0625 C 288.402344 307.5 287.972656 309.722656 286.984375 311.722656 C 285.996094 313.722656 284.5 315.3125 282.503906 316.492188 C 280.503906 317.671875 278.15625 318.257812 275.464844 318.257812 C 272.453125 318.257812 269.976562 317.703125 268.046875 316.589844 C 266.113281 315.484375 264.71875 314.210938 263.859375 312.773438 C 263.003906 311.332031 262.542969 310.074219 262.488281 309 C 262.453125 308.34375 262.695312 307.71875 263.210938 307.132812 C 263.726562 306.542969 264.398438 306.246094 265.222656 306.246094 C 266.636719 306.246094 267.730469 307.0625 268.503906 308.695312 C 269.253906 310.191406 270.226562 311.355469 271.410156 312.1875 C 272.601562 313.023438 273.898438 313.4375 275.3125 313.4375 C 276.609375 313.4375 277.726562 313.101562 278.667969 312.429688 C 279.609375 311.757812 280.316406 310.832031 280.78125 309.65625 C 281.25 308.476562 281.445312 307.140625 281.367188 305.644531 C 281.28125 304.027344 280.921875 302.648438 280.289062 301.503906 C 279.660156 300.363281 278.847656 299.507812 277.859375 298.945312 C 276.871094 298.382812 275.785156 298.097656 274.613281 298.097656 C 273.164062 298.097656 272.140625 298.277344 271.535156 298.628906 C 270.929688 298.980469 270.066406 299.597656 268.941406 300.484375 C 267.824219 301.367188 266.882812 301.808594 266.125 301.808594 C 265.300781 301.808594 264.554688 301.507812 263.882812 300.910156 C 263.210938 300.3125 262.855469 299.636719 262.816406 298.882812 C 262.8125 298.796875 262.875 298.222656 263.003906 297.164062 L 264.492188 285.082031 C 264.652344 283.632812 265.03125 282.582031 265.636719 281.925781 C 266.242188 281.269531 267.269531 280.941406 268.71875 280.941406 L 282.039062 280.941406 C 284.664062 280.941406 286.03125 281.941406 286.132812 283.945312 C 286.179688 284.820312 285.898438 285.527344 285.285156 286.0625 C 284.675781 286.601562 283.746094 286.871094 282.503906 286.871094 " fill-opacity="1" fill-rule="nonzero"/><path fill="#ffffff" d="M 180.816406 199.507812 L 197.625 199.507812 C 199.238281 199.507812 200.421875 199.761719 201.171875 200.265625 C 201.921875 200.769531 202.324219 201.601562 202.386719 202.765625 C 202.421875 203.46875 202.046875 204.402344 201.261719 205.5625 C 200.46875 206.722656 199.570312 208.007812 198.558594 209.410156 C 197.546875 210.8125 196.519531 212.5625 195.480469 214.648438 C 194.433594 216.730469 193.511719 219.28125 192.710938 222.292969 C 192.375 223.621094 192.144531 224.722656 192.027344 225.597656 C 191.902344 226.472656 191.777344 227.605469 191.648438 229.003906 C 191.519531 230.402344 191.398438 231.464844 191.289062 232.207031 C 191.023438 233.921875 190.582031 235.113281 189.972656 235.777344 C 189.359375 236.441406 188.515625 236.773438 187.4375 236.773438 C 186.410156 236.773438 185.570312 236.417969 184.90625 235.703125 C 184.246094 234.984375 183.882812 233.929688 183.808594 232.535156 C 183.753906 231.460938 183.902344 229.996094 184.261719 228.144531 C 184.617188 226.292969 185.242188 224.078125 186.132812 221.5 C 187.023438 218.914062 188.167969 216.265625 189.5625 213.546875 C 190.960938 210.832031 192.648438 208.128906 194.628906 205.4375 L 181.125 205.4375 C 179.714844 205.4375 178.644531 205.179688 177.917969 204.667969 C 177.195312 204.15625 176.800781 203.351562 176.742188 202.257812 C 176.683594 201.097656 177.015625 200.347656 177.738281 200.011719 C 178.460938 199.675781 179.484375 199.507812 180.816406 199.507812 " fill-opacity="1" fill-rule="nonzero"/></svg>